<?xml version="1.0" standalone="no"?>
<!DOCTYPE svg PUBLIC "-//W3C//DTD SVG 20010904//EN"
 "http://www.w3.org/TR/2001/REC-SVG-20010904/DTD/svg10.dtd">
<svg version="1.0" xmlns="http://www.w3.org/2000/svg"
 width="500.000000pt" height="500.000000pt" viewBox="0 0 500.000000 500.000000"
 preserveAspectRatio="xMidYMid meet">

<g transform="translate(0.000000,500.000000) scale(0.100000,-0.100000)"
fill="#000000" stroke="none">
<path d="M3222 3667 c-38 -40 -25 -109 25 -128 81 -31 149 66 88 126 -32 33
-83 34 -113 2z m112 -39 c8 -22 6 -32 -9 -48 -35 -38 -105 -19 -105 28 0 39
18 53 65 50 33 -3 41 -8 49 -30z"/>
<path d="M1773 3533 c-10 -4 -13 -94 -13 -404 l0 -399 175 0 175 0 0 399 c0
354 -2 400 -16 405 -19 7 -303 7 -321 -1z"/>
<path d="M2833 3532 c-10 -6 -13 -138 -15 -583 l-3 -574 -528 2 -527 3 2 -348
3 -347 170 0 170 0 3 173 2 172 355 0 355 0 2 -172 3 -173 170 0 170 0 3 919
c2 729 0 921 -10 928 -17 10 -309 10 -325 0z"/>
<path d="M3327 3489 c-26 -20 -29 -20 -46 -5 -24 22 -58 20 -71 -3 -5 -11 -10
-40 -10 -65 l0 -46 80 0 c78 0 112 16 48 22 -49 5 -50 39 -4 66 20 12 36 28
36 37 0 19 1 19 -33 -6z m-51 -44 c9 -36 -2 -55 -31 -55 -22 0 -25 4 -25 33 0
38 6 47 31 47 11 0 21 -10 25 -25z"/>
<path d="M3200 3315 c0 -12 16 -15 80 -15 64 0 80 3 80 15 0 12 -16 15 -80 15
-64 0 -80 -3 -80 -15z"/>
<path d="M3200 3205 l0 -65 80 0 80 0 0 65 c0 37 -4 65 -10 65 -5 0 -10 -22
-10 -50 0 -47 -2 -50 -25 -50 -23 0 -25 4 -25 45 0 25 -4 45 -10 45 -5 0 -10
-20 -10 -45 0 -41 -2 -45 -25 -45 -23 0 -25 3 -25 50 0 28 -4 50 -10 50 -6 0
-10 -28 -10 -65z"/>
<path d="M3273 3083 c-90 -33 -96 -53 -25 -79 26 -9 62 -23 80 -30 26 -11 32
-11 32 0 0 7 -11 18 -25 24 -19 9 -25 19 -25 42 0 23 6 33 25 40 14 5 25 14
25 20 0 13 -4 13 -87 -17z m27 -48 c0 -28 -2 -29 -50 -10 l-35 13 25 10 c43
18 60 15 60 -13z"/>
<path d="M3217 2922 c-21 -23 -22 -71 -1 -100 11 -17 25 -22 57 -22 23 0 47 4
53 8 16 10 34 48 34 69 0 24 -29 65 -41 58 -5 -4 -3 -15 6 -28 22 -31 19 -54
-10 -73 -56 -37 -116 14 -85 72 17 30 8 40 -13 16z"/>
<path d="M3200 2640 l0 -60 80 0 80 0 0 60 c0 71 -18 81 -22 13 -3 -41 -6 -48
-25 -51 -21 -3 -23 1 -23 42 0 25 -4 46 -10 46 -5 0 -10 -20 -10 -45 0 -41 -2
-45 -25 -45 -23 0 -25 3 -25 50 0 28 -4 50 -10 50 -6 0 -10 -27 -10 -60z"/>
<path d="M3200 2525 c0 -10 16 -15 61 -17 46 -2 65 -8 73 -20 21 -34 -4 -53
-73 -56 -80 -4 -79 -22 2 -22 75 0 86 6 93 52 9 55 -19 78 -96 78 -46 0 -60
-3 -60 -15z"/>
<path d="M3220 2350 c-12 -12 -20 -33 -20 -55 0 -47 29 -75 78 -75 44 0 54 6
72 40 7 14 21 31 32 38 19 14 25 62 8 62 -5 0 -10 -9 -10 -19 0 -32 -15 -32
-39 -1 -18 25 -29 30 -61 30 -27 0 -47 -7 -60 -20z m108 -22 c21 -18 10 -61
-20 -78 -25 -13 -31 -13 -55 0 -18 10 -29 26 -31 42 -6 49 62 72 106 36z"/>
<path d="M3200 2170 c0 -6 33 -10 80 -10 47 0 80 4 80 10 0 6 -33 10 -80 10
-47 0 -80 -4 -80 -10z"/>
<path d="M3216 2104 c-11 -10 -16 -34 -16 -70 l0 -54 80 0 c63 0 80 3 80 14 0
9 -12 16 -32 18 -49 5 -50 38 -3 63 19 11 35 26 35 33 0 8 -3 12 -7 10 -5 -2
-20 -10 -35 -17 -23 -12 -29 -11 -43 3 -21 20 -39 20 -59 0z m59 -44 c8 -37 0
-50 -31 -50 -21 0 -24 5 -24 33 0 38 6 47 31 47 11 0 20 -11 24 -30z"/>
<path d="M3200 1934 c0 -13 10 -15 60 -12 33 1 60 1 60 -2 0 -3 -27 -20 -60
-38 -41 -23 -60 -39 -60 -53 0 -17 8 -19 80 -19 63 0 80 3 80 15 0 10 -16 15
-62 17 l-63 3 63 34 c42 23 62 40 62 52 0 17 -9 19 -80 19 -66 0 -80 -3 -80
-16z"/>
<path d="M3200 1720 l0 -60 80 0 80 0 0 60 c0 71 -18 81 -22 13 -3 -41 -6 -48
-25 -51 -21 -3 -23 1 -23 42 0 25 -4 46 -10 46 -5 0 -10 -20 -10 -45 0 -41 -2
-45 -25 -45 -23 0 -25 3 -25 50 0 28 -4 50 -10 50 -6 0 -10 -27 -10 -60z"/>
<path d="M3200 1605 c0 -11 11 -15 36 -15 35 0 35 -1 32 -37 -3 -35 -6 -38
-35 -41 -21 -2 -33 -9 -33 -18 0 -11 17 -14 80 -14 64 0 80 3 80 15 0 10 -11
15 -35 15 -34 0 -35 1 -35 40 0 39 1 40 35 40 24 0 35 5 35 15 0 12 -16 15
-80 15 -64 0 -80 -3 -80 -15z"/>
</g>
</svg>
